<svg xmlns="http://www.w3.org/2000/svg" xmlns:xlink="http://www.w3.org/1999/xlink" width="365.785" height="367.063" viewBox="0 0 365.785 367.063">
  <defs>
    <clipPath id="clip-path">
      <rect id="Rectangle_59" data-name="Rectangle 59" width="365.785" height="367.063" fill="#161b4a"/>
    </clipPath>
  </defs>
  <g id="Group_3" data-name="Group 3" transform="translate(0 0.004)" opacity="0.294">
    <g id="Group_2" data-name="Group 2" transform="translate(0 -0.004)" clip-path="url(#clip-path)">
      <path id="Path_8016" data-name="Path 8016" d="M87.916,344.276q-41.075-22.779-64.5-64.489T0,183.528q0-54.541,24.062-96.259A167.225,167.225,0,0,1,89.839,22.78Q131.548,0,182.888,0T275.937,22.78a167.224,167.224,0,0,1,65.776,64.489q24.062,41.723,24.072,96.259,0,54.554-24.706,96.259a171.134,171.134,0,0,1-66.742,64.489q-42.04,22.793-94.015,22.784-51.34,0-92.405-22.784m138.3-67.377q21.5-11.866,34.328-35.615t12.841-57.755q0-50.691-26.638-77.973-26.629-27.264-65.132-27.273t-64.5,27.273q-25.994,27.277-25.985,77.973t25.341,77.964q25.346,27.277,63.854,27.273a93.5,93.5,0,0,0,45.89-11.866" transform="translate(0 0.004)" fill="#161b4a"/>
    </g>
  </g>
</svg>
