<svg xmlns="http://www.w3.org/2000/svg" width="17.579" height="20.828" viewBox="0 0 17.579 20.828">
  <g id="Group_7235" data-name="Group 7235" transform="translate(-319.096 -23)">
    <g id="_28" data-name="28" transform="translate(315.682 22.27)">
      <path id="Path_8020" data-name="Path 8020" d="M20.634,16.429,19.44,14.711a1.4,1.4,0,0,1-.251-.8V8.984a6.984,6.984,0,1,0-13.968,0v4.931a1.4,1.4,0,0,1-.251.8L3.775,16.429a1.4,1.4,0,0,0,1.034,2.333H8.782a3.492,3.492,0,0,0,6.844,0H19.6a1.4,1.4,0,0,0,1.034-2.333ZM12.2,20.158a2.1,2.1,0,0,1-1.969-1.4h3.939A2.1,2.1,0,0,1,12.2,20.158Zm-7.4-2.794a.566.566,0,0,0,.084-.1l1.222-1.76a2.794,2.794,0,0,0,.5-1.592V8.984a5.587,5.587,0,1,1,11.174,0v4.931a2.794,2.794,0,0,0,.5,1.592l1.222,1.76a.566.566,0,0,0,.084.1Z" transform="translate(0 0)" fill="#fff"/>
    </g>
    <circle id="Ellipse_27" data-name="Ellipse 27" cx="4" cy="4" r="4" transform="translate(328 23)" fill="red"/>
  </g>
</svg>
