<svg xmlns="http://www.w3.org/2000/svg" xmlns:xlink="http://www.w3.org/1999/xlink" width="72.014" height="72.266" viewBox="0 0 72.014 72.266">
  <defs>
    <clipPath id="clip-path">
      <rect id="Rectangle_59" data-name="Rectangle 59" width="72.014" height="72.266" fill="#5bc4f0" opacity="0.224"/>
    </clipPath>
  </defs>
  <g id="Group_7043" data-name="Group 7043" transform="translate(-115 -3)" opacity="0.224">
    <g id="Group_2" data-name="Group 2" transform="translate(115 3)" opacity="0.224" clip-path="url(#clip-path)">
      <path id="Path_8016" data-name="Path 8016" d="M17.309,67.776a32.3,32.3,0,0,1-12.7-12.7A38.035,38.035,0,0,1,0,36.129,37.247,37.247,0,0,1,4.737,17.178a32.922,32.922,0,0,1,12.95-12.7A37.585,37.585,0,0,1,36.006,0,37.585,37.585,0,0,1,54.325,4.482a32.922,32.922,0,0,1,12.95,12.7,37.248,37.248,0,0,1,4.739,18.951A36.487,36.487,0,0,1,67.15,55.08a33.692,33.692,0,0,1-13.14,12.7A38.2,38.2,0,0,1,35.5,72.262a36.844,36.844,0,0,1-18.192-4.486M44.535,54.511A16.977,16.977,0,0,0,51.294,47.5a23.635,23.635,0,0,0,2.528-11.371q0-9.98-5.244-15.351a17.24,17.24,0,0,0-12.823-5.369,16.836,16.836,0,0,0-12.7,5.369q-5.118,5.37-5.116,15.351T22.93,51.478A16.429,16.429,0,0,0,35.5,56.847a18.408,18.408,0,0,0,9.035-2.336" transform="translate(0 0.004)" fill="#161742"/>
    </g>
  </g>
</svg>
