<svg xmlns="http://www.w3.org/2000/svg" xmlns:xlink="http://www.w3.org/1999/xlink" width="1057.636" height="488.173" viewBox="0 0 1057.636 488.173">
  <defs>
    <linearGradient id="linear-gradient" x1="0.5" x2="0.5" y2="1" gradientUnits="objectBoundingBox">
      <stop offset="0" stop-color="#151742"/>
      <stop offset="0.626" stop-color="#1c468b"/>
      <stop offset="1" stop-color="#1c478d"/>
    </linearGradient>
    <filter id="Rectangle_55" x="370.851" y="3.532" width="366" height="411" filterUnits="userSpaceOnUse">
      <feOffset dy="1" input="SourceAlpha"/>
      <feGaussianBlur stdDeviation="1" result="blur"/>
      <feFlood flood-opacity="0.251"/>
      <feComposite operator="in" in2="blur"/>
      <feComposite in="SourceGraphic"/>
    </filter>
    <clipPath id="clip-path">
      <rect id="Rectangle_59" data-name="Rectangle 59" width="365.785" height="367.063" fill="#161b4a"/>
    </clipPath>
    <clipPath id="clip-path-2">
      <rect id="Rectangle_59-2" data-name="Rectangle 59" width="409.851" height="411.283" fill="none"/>
    </clipPath>
  </defs>
  <g id="Group_7237" data-name="Group 7237" transform="translate(373.851 5.532)">
    <g transform="matrix(1, 0, 0, 1, -373.85, -5.53)" filter="url(#Rectangle_55)">
      <rect id="Rectangle_55-2" data-name="Rectangle 55" width="360" height="405" transform="translate(373.85 5.53)" fill="url(#linear-gradient)"/>
    </g>
    <g id="Group_3" data-name="Group 3" transform="translate(318 -5.528)" opacity="0.294">
      <g id="Group_2" data-name="Group 2" transform="translate(0 -0.004)" clip-path="url(#clip-path)">
        <path id="Path_8016" data-name="Path 8016" d="M87.916,344.276q-41.075-22.779-64.5-64.489T0,183.528q0-54.541,24.062-96.259A167.225,167.225,0,0,1,89.839,22.78Q131.548,0,182.888,0T275.937,22.78a167.224,167.224,0,0,1,65.776,64.489q24.062,41.723,24.072,96.259,0,54.554-24.706,96.259a171.134,171.134,0,0,1-66.742,64.489q-42.04,22.793-94.015,22.784-51.34,0-92.405-22.784m138.3-67.377q21.5-11.866,34.328-35.615t12.841-57.755q0-50.691-26.638-77.973-26.629-27.264-65.132-27.273t-64.5,27.273q-25.994,27.277-25.985,77.973t25.341,77.964q25.346,27.277,63.854,27.273a93.5,93.5,0,0,0,45.89-11.866" transform="translate(0 0.004)" fill="#161b4a"/>
      </g>
    </g>
    <g id="Group_4" data-name="Group 4" transform="translate(-373.851 71.362)" opacity="0.294">
      <g id="Group_2-2" data-name="Group 2" transform="translate(0 -0.004)" clip-path="url(#clip-path-2)">
        <path id="Path_8016-2" data-name="Path 8016" d="M98.507,385.75Q52.485,360.227,26.24,313.493T0,205.638Q0,144.526,26.961,97.782t73.7-72.257Q147.4,0,204.92,0T309.178,25.524q46.734,25.524,73.7,72.257,26.961,46.75,26.972,107.856,0,61.126-27.683,107.855T307.385,385.75q-47.105,25.539-105.341,25.529-57.525,0-103.537-25.529m154.955-75.494q24.086-13.3,38.463-39.906t14.388-64.713q0-56.8-29.847-87.366Q246.63,87.723,203.488,87.713T131.22,118.271q-29.125,30.563-29.115,87.366T130.5,292.994q28.4,30.563,71.546,30.558a104.766,104.766,0,0,0,51.418-13.3" transform="translate(0 0.004)" fill="#161742"/>
      </g>
    </g>
  </g>
</svg>
