<svg xmlns="http://www.w3.org/2000/svg" width="128.001" height="55.999" viewBox="0 0 128.001 55.999">
  <path id="Subtraction_1" data-name="Subtraction 1" d="M1678.783,6872.593h-112a8.01,8.01,0,0,1-8-8v-40a8.009,8.009,0,0,1,8-8h72.674a41.683,41.683,0,0,0,1.285,9.349,34.74,34.74,0,0,0,3.307,8.242,33.4,33.4,0,0,0,5.48,7.28,32.43,32.43,0,0,0,7.218,5.416,34.935,34.935,0,0,0,8.59,3.365,41.956,41.956,0,0,0,21.446-.575v14.922A8.01,8.01,0,0,1,1678.783,6872.593Zm-3.843-36.64a17.552,17.552,0,0,1-6.932-1.342,16.608,16.608,0,0,1-5.638-4.027,17.143,17.143,0,0,1-3.564-6,26.839,26.839,0,0,1-1.4-7.994h21.379a8.009,8.009,0,0,1,8,8v7.052a16,16,0,0,1-2.81,1.97A18.48,18.48,0,0,1,1674.94,6835.953Z" transform="translate(-1558.784 -6816.594)" fill="#5bc4f0" opacity="0.224"/>
</svg>
